<mxfile host="app.diagrams.net" modified="2022-01-07T15:16:09.382Z" agent="5.0 (Windows NT 10.0; Win64; x64) AppleWebKit/537.36 (KHTML, like Gecko) Chrome/96.0.4664.110 Safari/537.36" etag="3BISR_l9XllaM4GAtgz8" version="16.2.2" type="github" pages="2">
  <diagram id="E948EfgCOJVRb2plcjeF" name="Page-1">
    <mxGraphModel dx="868" dy="390" grid="1" gridSize="10" guides="1" tooltips="1" connect="1" arrows="1" fold="1" page="1" pageScale="1" pageWidth="827" pageHeight="1169" math="0" shadow="0">
      <root>
        <mxCell id="0" />
        <mxCell id="1" parent="0" />
        <mxCell id="jdlnI0Il5XYoSt5V_vpM-72" style="edgeStyle=orthogonalEdgeStyle;rounded=0;orthogonalLoop=1;jettySize=auto;html=1;exitX=1;exitY=0.5;exitDx=0;exitDy=0;entryX=0;entryY=0.5;entryDx=0;entryDy=0;fontColor=#000000;" parent="1" source="jdlnI0Il5XYoSt5V_vpM-3" target="jdlnI0Il5XYoSt5V_vpM-67" edge="1">
          <mxGeometry relative="1" as="geometry" />
        </mxCell>
        <mxCell id="jdlnI0Il5XYoSt5V_vpM-78" style="edgeStyle=orthogonalEdgeStyle;rounded=0;orthogonalLoop=1;jettySize=auto;html=1;exitX=1;exitY=0.5;exitDx=0;exitDy=0;entryX=0;entryY=0.5;entryDx=0;entryDy=0;fontColor=#000000;" parent="1" source="jdlnI0Il5XYoSt5V_vpM-3" target="jdlnI0Il5XYoSt5V_vpM-73" edge="1">
          <mxGeometry relative="1" as="geometry" />
        </mxCell>
        <mxCell id="jdlnI0Il5XYoSt5V_vpM-3" value="F15: Désamorcer les pièges" style="rounded=0;whiteSpace=wrap;html=1;" parent="1" vertex="1">
          <mxGeometry x="90" y="900" width="120" height="60" as="geometry" />
        </mxCell>
        <mxCell id="jdlnI0Il5XYoSt5V_vpM-70" style="edgeStyle=orthogonalEdgeStyle;rounded=0;orthogonalLoop=1;jettySize=auto;html=1;exitX=1;exitY=0.5;exitDx=0;exitDy=0;entryX=0;entryY=0.5;entryDx=0;entryDy=0;fontColor=#000000;" parent="1" source="jdlnI0Il5XYoSt5V_vpM-67" target="jdlnI0Il5XYoSt5V_vpM-68" edge="1">
          <mxGeometry relative="1" as="geometry" />
        </mxCell>
        <mxCell id="jdlnI0Il5XYoSt5V_vpM-71" style="edgeStyle=orthogonalEdgeStyle;rounded=0;orthogonalLoop=1;jettySize=auto;html=1;exitX=1;exitY=0.5;exitDx=0;exitDy=0;entryX=0;entryY=0.5;entryDx=0;entryDy=0;fontColor=#000000;" parent="1" source="jdlnI0Il5XYoSt5V_vpM-67" target="jdlnI0Il5XYoSt5V_vpM-69" edge="1">
          <mxGeometry relative="1" as="geometry" />
        </mxCell>
        <mxCell id="jdlnI0Il5XYoSt5V_vpM-67" value="par pression&amp;nbsp;" style="rounded=0;whiteSpace=wrap;html=1;labelBackgroundColor=none;fontColor=#000000;strokeColor=#000000;fillColor=default;" parent="1" vertex="1">
          <mxGeometry x="320" y="860" width="120" height="40" as="geometry" />
        </mxCell>
        <mxCell id="jdlnI0Il5XYoSt5V_vpM-68" value="cf fonctionnement du Husky pour aller au contact du cube" style="rounded=0;whiteSpace=wrap;html=1;labelBackgroundColor=none;fontColor=#000000;strokeColor=#000000;fillColor=default;" parent="1" vertex="1">
          <mxGeometry x="530" y="820" width="180" height="40" as="geometry" />
        </mxCell>
        <mxCell id="jdlnI0Il5XYoSt5V_vpM-69" value="cf algorithme et lien entre Husky et lecteur de QRC" style="rounded=0;whiteSpace=wrap;html=1;labelBackgroundColor=none;fontColor=#000000;strokeColor=#000000;fillColor=default;" parent="1" vertex="1">
          <mxGeometry x="530" y="880" width="160" height="50" as="geometry" />
        </mxCell>
        <mxCell id="jdlnI0Il5XYoSt5V_vpM-73" value="envoie de la position aux drones pour qu&#39;ils le désactivent&amp;nbsp;" style="rounded=0;whiteSpace=wrap;html=1;labelBackgroundColor=none;fontColor=#000000;strokeColor=#000000;fillColor=default;" parent="1" vertex="1">
          <mxGeometry x="320" y="950" width="120" height="60" as="geometry" />
        </mxCell>
      </root>
    </mxGraphModel>
  </diagram>
  <diagram id="lp-3FWoehNaO1ZD1mjEL" name="Page-1">
    <mxGraphModel>
      <root>
        <mxCell id="0" />
        <mxCell id="1" parent="0" />
      </root>
    </mxGraphModel>
  </diagram>
</mxfile>
